<mxfile host="app.diagrams.net" agent="Mozilla/5.0 (Macintosh; Intel Mac OS X 10_15_7) AppleWebKit/537.36 (KHTML, like Gecko) Chrome/130.0.0.0 Safari/537.36" version="26.0.4">
  <diagram name="第 1 页" id="xW_SZls8N9TOqgsOVDpD">
    <mxGraphModel dx="1026" dy="598" grid="1" gridSize="10" guides="1" tooltips="1" connect="1" arrows="1" fold="1" page="1" pageScale="1" pageWidth="827" pageHeight="1169" math="0" shadow="0">
      <root>
        <mxCell id="0" />
        <mxCell id="1" parent="0" />
        <mxCell id="1Zfur0nQzSB4-iuhikmC-1" value="DATA MODULE" style="ellipse;whiteSpace=wrap;html=1;aspect=fixed;" vertex="1" parent="1">
          <mxGeometry x="40" y="80" width="120" height="120" as="geometry" />
        </mxCell>
        <mxCell id="1Zfur0nQzSB4-iuhikmC-3" value="" style="shape=flexArrow;endArrow=classic;html=1;rounded=0;endWidth=23;endSize=6.03;" edge="1" parent="1">
          <mxGeometry width="50" height="50" relative="1" as="geometry">
            <mxPoint x="170" y="130" as="sourcePoint" />
            <mxPoint x="230" y="90" as="targetPoint" />
            <Array as="points">
              <mxPoint x="190" y="110" />
            </Array>
          </mxGeometry>
        </mxCell>
        <mxCell id="1Zfur0nQzSB4-iuhikmC-4" value="DATA COLLECTOR" style="rounded=1;whiteSpace=wrap;html=1;" vertex="1" parent="1">
          <mxGeometry x="250" y="30" width="120" height="60" as="geometry" />
        </mxCell>
        <mxCell id="1Zfur0nQzSB4-iuhikmC-5" value="" style="shape=flexArrow;endArrow=classic;html=1;rounded=0;width=11;endSize=8.49;" edge="1" parent="1">
          <mxGeometry width="50" height="50" relative="1" as="geometry">
            <mxPoint x="170" y="150" as="sourcePoint" />
            <mxPoint x="250" y="150" as="targetPoint" />
            <Array as="points">
              <mxPoint x="200" y="160" />
            </Array>
          </mxGeometry>
        </mxCell>
        <mxCell id="1Zfur0nQzSB4-iuhikmC-6" value="DATA DEALER" style="rounded=1;whiteSpace=wrap;html=1;" vertex="1" parent="1">
          <mxGeometry x="280" y="120" width="90" height="50" as="geometry" />
        </mxCell>
        <mxCell id="1Zfur0nQzSB4-iuhikmC-7" value="" style="shape=flexArrow;endArrow=classic;html=1;rounded=0;width=11;endSize=8.15;" edge="1" parent="1">
          <mxGeometry width="50" height="50" relative="1" as="geometry">
            <mxPoint x="170" y="180" as="sourcePoint" />
            <mxPoint x="290" y="200" as="targetPoint" />
          </mxGeometry>
        </mxCell>
        <mxCell id="1Zfur0nQzSB4-iuhikmC-8" value="DATA STORAGE" style="rounded=1;whiteSpace=wrap;html=1;" vertex="1" parent="1">
          <mxGeometry x="304" y="200" width="110" height="50" as="geometry" />
        </mxCell>
        <mxCell id="1Zfur0nQzSB4-iuhikmC-9" value="" style="endArrow=classic;html=1;rounded=0;entryX=0.667;entryY=0;entryDx=0;entryDy=0;entryPerimeter=0;" edge="1" parent="1" source="1Zfur0nQzSB4-iuhikmC-4" target="1Zfur0nQzSB4-iuhikmC-6">
          <mxGeometry width="50" height="50" relative="1" as="geometry">
            <mxPoint x="389" y="70" as="sourcePoint" />
            <mxPoint x="439" y="20" as="targetPoint" />
          </mxGeometry>
        </mxCell>
        <mxCell id="1Zfur0nQzSB4-iuhikmC-10" value="" style="endArrow=classic;html=1;rounded=0;exitX=0.667;exitY=0.96;exitDx=0;exitDy=0;exitPerimeter=0;entryX=0.564;entryY=0.02;entryDx=0;entryDy=0;entryPerimeter=0;" edge="1" parent="1" source="1Zfur0nQzSB4-iuhikmC-6" target="1Zfur0nQzSB4-iuhikmC-8">
          <mxGeometry width="50" height="50" relative="1" as="geometry">
            <mxPoint x="380" y="340" as="sourcePoint" />
            <mxPoint x="430" y="290" as="targetPoint" />
          </mxGeometry>
        </mxCell>
        <mxCell id="1Zfur0nQzSB4-iuhikmC-11" value="FACTOR MODULE" style="ellipse;whiteSpace=wrap;html=1;aspect=fixed;" vertex="1" parent="1">
          <mxGeometry x="30" y="270" width="100" height="100" as="geometry" />
        </mxCell>
        <mxCell id="1Zfur0nQzSB4-iuhikmC-12" value="MODELLING MODULE" style="ellipse;whiteSpace=wrap;html=1;aspect=fixed;" vertex="1" parent="1">
          <mxGeometry x="180" y="270" width="100" height="100" as="geometry" />
        </mxCell>
        <mxCell id="1Zfur0nQzSB4-iuhikmC-13" value="BACKTEST MODULE" style="ellipse;whiteSpace=wrap;html=1;aspect=fixed;" vertex="1" parent="1">
          <mxGeometry x="320" y="270" width="100" height="100" as="geometry" />
        </mxCell>
        <mxCell id="1Zfur0nQzSB4-iuhikmC-14" value="TRADING MODULE" style="ellipse;whiteSpace=wrap;html=1;aspect=fixed;" vertex="1" parent="1">
          <mxGeometry x="620" y="270" width="100" height="100" as="geometry" />
        </mxCell>
        <mxCell id="1Zfur0nQzSB4-iuhikmC-15" value="STRATEGY&amp;nbsp;&lt;div&gt;MODULE&lt;/div&gt;" style="ellipse;whiteSpace=wrap;html=1;aspect=fixed;" vertex="1" parent="1">
          <mxGeometry x="460" y="270" width="100" height="100" as="geometry" />
        </mxCell>
        <mxCell id="1Zfur0nQzSB4-iuhikmC-16" value="" style="endArrow=classic;html=1;rounded=0;entryX=1;entryY=0;entryDx=0;entryDy=0;exitX=0;exitY=0.75;exitDx=0;exitDy=0;" edge="1" parent="1" source="1Zfur0nQzSB4-iuhikmC-8" target="1Zfur0nQzSB4-iuhikmC-11">
          <mxGeometry width="50" height="50" relative="1" as="geometry">
            <mxPoint x="380" y="320" as="sourcePoint" />
            <mxPoint x="430" y="270" as="targetPoint" />
          </mxGeometry>
        </mxCell>
        <mxCell id="1Zfur0nQzSB4-iuhikmC-17" value="" style="shape=flexArrow;endArrow=classic;html=1;rounded=0;" edge="1" parent="1" source="1Zfur0nQzSB4-iuhikmC-11" target="1Zfur0nQzSB4-iuhikmC-18">
          <mxGeometry width="50" height="50" relative="1" as="geometry">
            <mxPoint x="380" y="320" as="sourcePoint" />
            <mxPoint x="60" y="420" as="targetPoint" />
          </mxGeometry>
        </mxCell>
        <mxCell id="1Zfur0nQzSB4-iuhikmC-18" value="FACTOR POOL" style="rounded=1;whiteSpace=wrap;html=1;" vertex="1" parent="1">
          <mxGeometry x="10" y="430" width="120" height="60" as="geometry" />
        </mxCell>
        <mxCell id="1Zfur0nQzSB4-iuhikmC-20" value="TOOL&amp;nbsp;&lt;div&gt;MODULE&lt;/div&gt;&lt;div&gt;&lt;br&gt;&lt;/div&gt;" style="ellipse;whiteSpace=wrap;html=1;aspect=fixed;" vertex="1" parent="1">
          <mxGeometry x="460" y="150" width="80" height="80" as="geometry" />
        </mxCell>
        <mxCell id="1Zfur0nQzSB4-iuhikmC-21" value="" style="endArrow=classic;html=1;rounded=0;entryX=0.96;entryY=0.35;entryDx=0;entryDy=0;entryPerimeter=0;" edge="1" parent="1" source="1Zfur0nQzSB4-iuhikmC-20" target="1Zfur0nQzSB4-iuhikmC-11">
          <mxGeometry width="50" height="50" relative="1" as="geometry">
            <mxPoint x="380" y="320" as="sourcePoint" />
            <mxPoint x="430" y="270" as="targetPoint" />
          </mxGeometry>
        </mxCell>
        <mxCell id="1Zfur0nQzSB4-iuhikmC-24" value="" style="shape=flexArrow;endArrow=classic;html=1;rounded=0;" edge="1" parent="1" target="1Zfur0nQzSB4-iuhikmC-25">
          <mxGeometry width="50" height="50" relative="1" as="geometry">
            <mxPoint x="540" y="160" as="sourcePoint" />
            <mxPoint x="590" y="110" as="targetPoint" />
          </mxGeometry>
        </mxCell>
        <mxCell id="1Zfur0nQzSB4-iuhikmC-25" value="TOOL FOR FACTOR MODELLING" style="rounded=1;whiteSpace=wrap;html=1;" vertex="1" parent="1">
          <mxGeometry x="590" y="70" width="120" height="60" as="geometry" />
        </mxCell>
        <mxCell id="1Zfur0nQzSB4-iuhikmC-29" value="" style="endArrow=classic;html=1;rounded=0;exitX=1.01;exitY=0.62;exitDx=0;exitDy=0;exitPerimeter=0;entryX=0.02;entryY=0.64;entryDx=0;entryDy=0;entryPerimeter=0;" edge="1" parent="1" source="1Zfur0nQzSB4-iuhikmC-11" target="1Zfur0nQzSB4-iuhikmC-12">
          <mxGeometry width="50" height="50" relative="1" as="geometry">
            <mxPoint x="130" y="345" as="sourcePoint" />
            <mxPoint x="180" y="295" as="targetPoint" />
          </mxGeometry>
        </mxCell>
        <mxCell id="1Zfur0nQzSB4-iuhikmC-30" value="" style="shape=flexArrow;endArrow=classic;html=1;rounded=0;" edge="1" parent="1">
          <mxGeometry width="50" height="50" relative="1" as="geometry">
            <mxPoint x="230" y="380" as="sourcePoint" />
            <mxPoint x="240" y="440" as="targetPoint" />
            <Array as="points">
              <mxPoint x="240" y="400" />
            </Array>
          </mxGeometry>
        </mxCell>
        <mxCell id="1Zfur0nQzSB4-iuhikmC-31" value="MODELLING TOOL" style="rounded=1;whiteSpace=wrap;html=1;" vertex="1" parent="1">
          <mxGeometry x="170" y="450" width="120" height="60" as="geometry" />
        </mxCell>
        <mxCell id="1Zfur0nQzSB4-iuhikmC-32" value="" style="shape=flexArrow;endArrow=classic;html=1;rounded=0;exitX=0.5;exitY=1;exitDx=0;exitDy=0;" edge="1" parent="1" source="1Zfur0nQzSB4-iuhikmC-13" target="1Zfur0nQzSB4-iuhikmC-33">
          <mxGeometry width="50" height="50" relative="1" as="geometry">
            <mxPoint x="370" y="390" as="sourcePoint" />
            <mxPoint x="370" y="460" as="targetPoint" />
            <Array as="points">
              <mxPoint x="370" y="400" />
            </Array>
          </mxGeometry>
        </mxCell>
        <mxCell id="1Zfur0nQzSB4-iuhikmC-33" value="ANALYZER&amp;nbsp;" style="rounded=1;whiteSpace=wrap;html=1;" vertex="1" parent="1">
          <mxGeometry x="310" y="440" width="120" height="60" as="geometry" />
        </mxCell>
        <mxCell id="1Zfur0nQzSB4-iuhikmC-34" value="" style="endArrow=classic;html=1;rounded=0;exitX=1;exitY=0.383;exitDx=0;exitDy=0;exitPerimeter=0;entryX=0;entryY=0.5;entryDx=0;entryDy=0;" edge="1" parent="1" source="1Zfur0nQzSB4-iuhikmC-18" target="1Zfur0nQzSB4-iuhikmC-31">
          <mxGeometry width="50" height="50" relative="1" as="geometry">
            <mxPoint x="130" y="470" as="sourcePoint" />
            <mxPoint x="180" y="420" as="targetPoint" />
          </mxGeometry>
        </mxCell>
        <mxCell id="1Zfur0nQzSB4-iuhikmC-35" value="" style="endArrow=classic;html=1;rounded=0;exitX=0.99;exitY=0.36;exitDx=0;exitDy=0;exitPerimeter=0;entryX=-0.02;entryY=0.42;entryDx=0;entryDy=0;entryPerimeter=0;" edge="1" parent="1" source="1Zfur0nQzSB4-iuhikmC-15" target="1Zfur0nQzSB4-iuhikmC-14">
          <mxGeometry width="50" height="50" relative="1" as="geometry">
            <mxPoint x="560" y="320" as="sourcePoint" />
            <mxPoint x="610" y="270" as="targetPoint" />
          </mxGeometry>
        </mxCell>
        <mxCell id="1Zfur0nQzSB4-iuhikmC-36" value="" style="endArrow=classic;html=1;rounded=0;exitX=0.692;exitY=1.017;exitDx=0;exitDy=0;exitPerimeter=0;entryX=0.392;entryY=1.05;entryDx=0;entryDy=0;entryPerimeter=0;" edge="1" parent="1" source="1Zfur0nQzSB4-iuhikmC-18" target="1Zfur0nQzSB4-iuhikmC-33">
          <mxGeometry width="50" height="50" relative="1" as="geometry">
            <mxPoint x="130" y="470" as="sourcePoint" />
            <mxPoint x="370" y="570" as="targetPoint" />
            <Array as="points">
              <mxPoint x="230" y="560" />
            </Array>
          </mxGeometry>
        </mxCell>
        <mxCell id="1Zfur0nQzSB4-iuhikmC-37" value="" style="endArrow=classic;html=1;rounded=0;" edge="1" parent="1">
          <mxGeometry width="50" height="50" relative="1" as="geometry">
            <mxPoint x="430" y="480" as="sourcePoint" />
            <mxPoint x="470" y="460" as="targetPoint" />
          </mxGeometry>
        </mxCell>
        <mxCell id="1Zfur0nQzSB4-iuhikmC-38" value="" style="endArrow=classic;html=1;rounded=0;exitX=1;exitY=0.5;exitDx=0;exitDy=0;entryX=0;entryY=0.5;entryDx=0;entryDy=0;" edge="1" parent="1" source="1Zfur0nQzSB4-iuhikmC-31" target="1Zfur0nQzSB4-iuhikmC-33">
          <mxGeometry width="50" height="50" relative="1" as="geometry">
            <mxPoint x="290" y="470" as="sourcePoint" />
            <mxPoint x="340" y="420" as="targetPoint" />
          </mxGeometry>
        </mxCell>
        <mxCell id="1Zfur0nQzSB4-iuhikmC-40" value="" style="shape=flexArrow;endArrow=classic;html=1;rounded=0;exitX=0.5;exitY=1;exitDx=0;exitDy=0;" edge="1" parent="1" source="1Zfur0nQzSB4-iuhikmC-15" target="1Zfur0nQzSB4-iuhikmC-41">
          <mxGeometry width="50" height="50" relative="1" as="geometry">
            <mxPoint x="510" y="400" as="sourcePoint" />
            <mxPoint x="510" y="430" as="targetPoint" />
          </mxGeometry>
        </mxCell>
        <mxCell id="1Zfur0nQzSB4-iuhikmC-41" value="STRATEGY POOL" style="rounded=1;whiteSpace=wrap;html=1;" vertex="1" parent="1">
          <mxGeometry x="470" y="440" width="120" height="60" as="geometry" />
        </mxCell>
        <mxCell id="1Zfur0nQzSB4-iuhikmC-42" value="" style="shape=flexArrow;endArrow=classic;html=1;rounded=0;" edge="1" parent="1">
          <mxGeometry width="50" height="50" relative="1" as="geometry">
            <mxPoint x="680" y="380" as="sourcePoint" />
            <mxPoint x="710" y="430" as="targetPoint" />
            <Array as="points">
              <mxPoint x="700" y="400" />
            </Array>
          </mxGeometry>
        </mxCell>
        <mxCell id="1Zfur0nQzSB4-iuhikmC-43" value="TRADING SYSTEM" style="rounded=1;whiteSpace=wrap;html=1;" vertex="1" parent="1">
          <mxGeometry x="640" y="430" width="120" height="60" as="geometry" />
        </mxCell>
        <mxCell id="1Zfur0nQzSB4-iuhikmC-44" value="" style="endArrow=classic;html=1;rounded=0;entryX=0;entryY=0.5;entryDx=0;entryDy=0;" edge="1" parent="1" target="1Zfur0nQzSB4-iuhikmC-43">
          <mxGeometry width="50" height="50" relative="1" as="geometry">
            <mxPoint x="590" y="460" as="sourcePoint" />
            <mxPoint x="640" y="410" as="targetPoint" />
          </mxGeometry>
        </mxCell>
        <mxCell id="1Zfur0nQzSB4-iuhikmC-45" value="" style="endArrow=classic;html=1;rounded=0;" edge="1" parent="1" target="1Zfur0nQzSB4-iuhikmC-46">
          <mxGeometry width="50" height="50" relative="1" as="geometry">
            <mxPoint x="690" y="490" as="sourcePoint" />
            <mxPoint x="680" y="520" as="targetPoint" />
          </mxGeometry>
        </mxCell>
        <mxCell id="1Zfur0nQzSB4-iuhikmC-46" value="LIVE DATA TRADING" style="rounded=1;whiteSpace=wrap;html=1;" vertex="1" parent="1">
          <mxGeometry x="600" y="530" width="120" height="60" as="geometry" />
        </mxCell>
        <mxCell id="1Zfur0nQzSB4-iuhikmC-47" value="FRAMEWORK OF PENGYITRADER" style="shape=or;whiteSpace=wrap;html=1;" vertex="1" parent="1">
          <mxGeometry width="170" height="40" as="geometry" />
        </mxCell>
      </root>
    </mxGraphModel>
  </diagram>
</mxfile>
